{"title":"The.Only.Way.Is.Essex.S08E04.PDTV.XviD-W33D","uid":8226618,"size":261359872,"categoryP":"video","categoryS":"tv_shows","magnet":"?xt=urn:btih:3c452c3d44a3acb23ec3dca2d06ac28eec28f764&amp;dn=The.Only.Way.Is.Essex.S08E04.PDTV.XviD-W33D&amp;tr=udp%3A%2F%2Ftracker.openbittorrent.com%3A80&amp;tr=udp%3A%2F%2Fopen.demonii.com%3A1337&amp;tr=udp%3A%2F%2Ftracker.coppersurfer.tk%3A6969&amp;tr=udp%3A%2F%2Fexodus.desync.com%3A6969","seeders":1,"leechers":0,"uploader":"shane1989","files":1,"time":1362615275,"description":"\nThe Only Way Is Essex is a British BAFTA award-winning reality television show based in Essex, England.\nIt shows &quot;real people in modified situations, saying unscripted lines but in a structured way.&quot;\nThe show is filmed just a few days in advance.\n\n\n\n\n\nGeneral\nComplete name                            : C:Usersshane1989DownloadsThe.Only.Way.Is.Essex.S08E04.PDTV.XviD-W33D.avi\nFormat                                   : AVI\nFormat/Info                              : Audio Video Interleave\nFormat profile                           : OpenDML\nFormat settings                          : rec\nFile size                                : 249 MiB\nDuration                                 : 32mn 35s\nOverall bit rate mode                    : Variable\nOverall bit rate                         : 1 069 Kbps\nWriting application                      : AVI-Mux GUI 1.17.8.3, Feb 16 201019:42:50\n\nVideo\nID                                       : 0\nFormat                                   : MPEG-4 Visual\nFormat profile                           : Advanced Simple@L5\nFormat settings, BVOP                    : 2\nFormat settings, QPel                    : No\nFormat settings, GMC                     : No warppoints\nFormat settings, Matrix                  : Default (H.263)\nCodec ID                                 : XVID\nCodec ID/Hint                            : XviD\nDuration                                 : 32mn 35s\nBit rate                                 : 931 Kbps\nWidth                                    : 688 pixels\nHeight                                   : 384 pixels\nDisplay aspect ratio                     : 16:9\nFrame rate                               : 25.000 fps\nColor space                              : YUV\nChroma subsampling                       : 4:2:0\nBit depth                                : 8 bits\nScan type                                : Progressive\nCompression mode                         : Lossy\nBits/(Pixel*Frame)                       : 0.141\nStream size                              : 217 MiB (87%)\nWriting library                          : XviD 1.1.2 (UTC 2006-11-01)\n\nAudio\nID                                       : 1\nFormat                                   : MPEG Audio\nFormat version                           : Version 1\nFormat profile                           : Layer 3\nMode                                     : Joint stereo\nMode extension                           : MS Stereo\nCodec ID                                 : 55\nCodec ID/Hint                            : MP3\nDuration                                 : 32mn 35s\nBit rate mode                            : Variable\nBit rate                                 : 128 Kbps\nChannel(s)                               : 2 channels\nSampling rate                            : 48.0 KHz\nCompression mode                         : Lossy\nStream size                              : 30.1 MiB (12%)\nAlignment                                : Aligned on interleaves\nInterleave, duration                     : 24 ms (0.60 video frame)\nInterleave, preload duration             : 243 ms\nWriting library                          : LAME3.90.\nEncoding settings                        : -m j -V 4 -q 2 -lowpass 17.6","torrent":{"xt":"urn:btih:3c452c3d44a3acb23ec3dca2d06ac28eec28f764","amp;dn":"The.Only.Way.Is.Essex.S08E04.PDTV.XviD-W33D","amp;tr":["udp%3A%2F%2Ftracker.openbittorrent.com%3A80","udp%3A%2F%2Fopen.demonii.com%3A1337","udp%3A%2F%2Ftracker.coppersurfer.tk%3A6969","udp%3A%2F%2Fexodus.desync.com%3A6969"],"infoHash":"3c452c3d44a3acb23ec3dca2d06ac28eec28f764","infoHashBuffer":{"type":"Buffer","data":[60,69,44,61,68,163,172,178,62,195,220,162,208,106,194,142,236,40,247,100]},"announce":[],"urlList":[]}}